# xmcd CD database file
#
# Track frame offsets:
#	150
#	19096
#	37153
#	59781
#	71197
#	92201
#	106251
#	123811
#	146768
#	166456
#
# Disc length: 2484 seconds
#
# Revision: 0
# Processed by: cddbd v1.5PL3 Copyright (c) Steve Scherf et al.
# Submitted via: CDex 1.50
#
DISCID=9509b20a
DTITLE=Asami Kado - Fascination
DYEAR=1900
DGENRE=JPop
TTITLE0=Morning Kiss
TTITLE1=Keep on Loving
TTITLE2=Stop Passing Night
TTITLE3=South Shore
TTITLE4=Good Luck
TTITLE5=Fascination
TTITLE6=Darling
TTITLE7=Smile for Me
TTITLE8=Fancy Evenin
TTITLE9=Blue
EXTD=
EXTT0=
EXTT1=
EXTT2=
EXTT3=
EXTT4=
EXTT5=
EXTT6=
EXTT7=
EXTT8=
EXTT9=
PLAYORDER=
